<svg width="214" height="32" viewBox="0 0 214 32" fill="none" xmlns="http://www.w3.org/2000/svg">
<path d="M70.5916 10.9581H70.1814C68.7456 10.9581 67.3063 10.9513 65.8705 10.9648C65.6243 10.9648 65.4979 10.8835 65.3885 10.6802C64.8415 9.62981 64.0791 8.76916 63.0706 8.12875C61.5288 7.14951 59.8161 6.93604 58.035 7.07835C56.4966 7.20372 55.1018 7.69843 53.936 8.73867C52.9309 9.63659 52.2267 10.731 51.8096 11.9915C50.9276 14.6514 50.9071 17.3384 51.8165 19.9881C52.5173 22.0347 53.7959 23.6307 55.8915 24.4574C56.8487 24.8335 57.8606 24.9725 58.8828 24.9725C60.2195 24.9725 61.5015 24.7319 62.6843 24.0678C63.98 23.3427 64.9064 22.2821 65.5628 20.9843C65.8568 20.4049 66.0551 19.7814 66.3252 19.1105H58.4965V14.8378H71.2104C71.2241 14.953 71.2549 15.0716 71.2549 15.1936C71.3164 17.9924 70.9574 20.7065 69.5763 23.2037C67.9114 26.2194 65.4705 28.2795 62.0279 29.0419C59.2828 29.6518 56.5718 29.5028 53.9463 28.4659C51.8814 27.6493 50.2473 26.2702 48.9687 24.4744C47.5739 22.5193 46.8321 20.3338 46.5791 17.9653C46.3159 15.5053 46.4526 13.0758 47.2936 10.7412C48.6405 7.01397 51.0883 4.27954 55.0061 3.13765C58.5204 2.11435 61.9835 2.35832 65.2175 4.18127C67.1251 5.25539 68.5473 6.831 69.566 8.75222C69.9353 9.44684 70.2258 10.1787 70.578 10.9513L70.5916 10.9581Z" fill="#264728"/>
<path d="M167.018 19.0902H159.175V14.8513H171.91C171.924 15.0512 171.951 15.2545 171.951 15.4578C171.965 17.4028 171.794 19.3274 171.154 21.1808C170.361 23.4748 169.066 25.4367 167.144 26.9682C165.524 28.2592 163.657 28.9843 161.609 29.2554C159.336 29.557 157.107 29.3875 154.943 28.5913C153.135 27.9238 151.62 26.8395 150.369 25.396C148.718 23.4917 147.75 21.2689 147.367 18.8124C146.944 16.0813 147.039 13.357 147.986 10.7378C149.33 7.02413 151.788 4.3473 155.671 3.14442C157.493 2.58194 159.37 2.4769 161.271 2.69715C162.738 2.86657 164.126 3.26301 165.432 3.94069C167.541 5.03175 169.11 6.66157 170.224 8.7251C170.604 9.4265 170.901 10.1719 171.271 10.9682H170.802C169.401 10.9682 167.999 10.9581 166.597 10.975C166.314 10.975 166.167 10.8869 166.037 10.6463C165.257 9.17915 164.098 8.11519 162.522 7.53239C161.124 7.01396 159.678 6.9462 158.211 7.1495C156.912 7.32908 155.736 7.79668 154.731 8.65056C153.658 9.56204 152.919 10.7039 152.482 12.022C151.607 14.6717 151.586 17.3452 152.489 19.9881C153.189 22.0381 154.458 23.634 156.553 24.4676C157.521 24.8539 158.543 24.9894 159.579 24.9894C160.902 24.9894 162.177 24.7488 163.35 24.0949C164.645 23.3731 165.575 22.3126 166.235 21.0182C166.536 20.432 166.734 19.795 167.014 19.1038L167.018 19.0902Z" fill="#264728"/>
<path d="M213.997 28.9673H209.573V27.5374C209.416 27.656 209.32 27.7204 209.231 27.7983C207.751 29.0656 206.028 29.5637 204.09 29.4383C202.353 29.3231 200.784 28.8013 199.45 27.6696C198.292 26.687 197.437 25.4875 196.938 24.0643C195.998 21.3841 195.974 18.687 196.951 16.0203C197.782 13.7501 199.283 12.005 201.614 11.1783C204.356 10.2058 206.989 10.3955 209.286 12.4015C209.354 12.4625 209.429 12.5133 209.556 12.6149V3.14777H214V28.9707L213.997 28.9673ZM200.732 20.1778C200.77 20.5336 200.801 21.0961 200.9 21.6484C201.126 22.8818 201.662 23.9593 202.722 24.7014C203.59 25.3113 204.589 25.4671 205.631 25.4129C207.611 25.3147 208.893 24.2575 209.508 22.4142C209.956 21.069 209.973 19.6798 209.696 18.3007C209.412 16.8945 208.739 15.7255 207.378 15.058C206.472 14.6141 205.501 14.5599 204.527 14.6853C203.337 14.8377 202.377 15.3867 201.686 16.3998C200.948 17.4875 200.784 18.7073 200.726 20.1745L200.732 20.1778Z" fill="#264728"/>
<path d="M104.429 21.7704H90.5701C90.7752 22.648 91.1478 23.3833 91.7461 23.9932C92.8982 25.1724 94.3032 25.5417 95.9305 25.3147C97.1749 25.1385 98.1424 24.5692 98.9047 23.6036C98.9731 23.5188 99.103 23.4307 99.2056 23.4307C100.723 23.4206 102.241 23.424 103.855 23.424C103.547 24.0339 103.308 24.6167 102.976 25.1419C101.674 27.2054 99.8551 28.6184 97.4381 29.1436C94.8673 29.7027 92.3751 29.435 90.1325 27.9881C88.0471 26.6429 86.7241 24.7285 86.201 22.299C85.7703 20.2931 85.8147 18.3007 86.5668 16.3829C87.7018 13.4926 89.7667 11.5849 92.8469 10.8327C94.5357 10.4227 96.2313 10.4498 97.8928 10.9411C100.546 11.7238 102.399 13.4451 103.571 15.895C104.238 17.2876 104.463 18.7751 104.429 20.3066C104.419 20.7844 104.429 21.2588 104.429 21.7738V21.7704ZM99.7662 18.4091C99.3526 16.1288 97.6125 14.5599 95.11 14.5836C92.4879 14.6074 90.9324 16.2914 90.553 18.4091H99.7662Z" fill="#264728"/>
<path d="M124.438 23.424C123.943 24.7793 123.218 25.9077 122.23 26.87C121.057 28.0119 119.676 28.8183 118.063 29.1504C115.512 29.6756 113.048 29.4384 110.815 28.0186C108.661 26.6497 107.321 24.6845 106.812 22.1906C106.47 20.5167 106.453 18.8327 106.945 17.1893C107.933 13.8653 110.077 11.6595 113.526 10.8327C115.796 10.2872 118.015 10.504 120.107 11.5646C121.604 12.3236 122.76 13.4621 123.656 14.8649C124.838 16.7217 125.163 18.7751 125.054 20.9233C125.04 21.1842 125.026 21.4485 125.009 21.7569H111.123C111.383 22.3227 111.557 22.831 111.83 23.2783C112.767 24.82 114.579 25.5959 116.381 25.352C117.69 25.1758 118.753 24.6336 119.55 23.5832C119.604 23.5087 119.714 23.4308 119.796 23.4308C121.324 23.4206 122.852 23.424 124.435 23.424H124.438ZM111.208 18.3956H120.415C119.926 15.9153 117.946 14.3803 115.287 14.604C112.904 14.8039 111.475 16.5523 111.212 18.3956H111.208Z" fill="#264728"/>
<path d="M144.338 28.9776H139.891C139.891 28.8251 139.891 28.6828 139.891 28.5405C139.891 25.2029 139.918 21.8687 139.877 18.5311C139.863 17.3655 139.532 16.2507 138.571 15.468C137.077 14.2482 134.705 14.2956 133.265 15.5629C132.65 16.105 132.383 16.8708 132.195 17.64C132.089 18.0669 132.052 18.521 132.048 18.9649C132.038 22.1533 132.042 25.3384 132.042 28.5269V28.9606H127.563V11.0597H131.994V13.4214C132.113 13.2791 132.171 13.2215 132.216 13.1538C133.146 11.7035 134.524 10.9479 136.199 10.7039C137.539 10.5074 138.875 10.5481 140.164 11.0089C141.583 11.5138 142.643 12.4422 143.368 13.7501C144.096 15.058 144.335 16.4845 144.338 17.9517C144.352 21.54 144.342 25.1283 144.342 28.7167C144.342 28.7946 144.335 28.8725 144.332 28.9742L144.338 28.9776Z" fill="#264728"/>
<path d="M78.417 11.0665V13.4519C80.1058 10.9004 82.5159 10.3651 85.2953 10.6937V15.1935C84.7244 15.0987 84.1671 14.9902 83.6031 14.9157C82.4715 14.7666 81.3536 14.8005 80.3485 15.4172C79.2648 16.0847 78.7281 17.108 78.564 18.338C78.5161 18.7107 78.4888 19.0902 78.4853 19.4629C78.4785 22.5599 78.4853 25.6535 78.4819 28.7505C78.4819 28.8183 78.4751 28.8826 78.4717 28.9674H74.0001V11.0699H78.417V11.0665Z" fill="#264728"/>
<path d="M185.974 15.1631C185.133 15.058 184.313 14.9123 183.489 14.8615C181.339 14.7327 179.739 15.8916 179.311 17.9585C179.209 18.4566 179.168 18.9784 179.164 19.49C179.151 22.5633 179.158 25.6332 179.158 28.7065C179.158 28.7844 179.158 28.8623 179.158 28.964H174.676V11.0597H179.086V13.3367C180.792 10.8903 183.202 10.3685 185.968 10.6972V15.1664L185.974 15.1631Z" fill="#264728"/>
<path d="M189.328 28.964V11.0631H193.752V28.964H189.328Z" fill="#264728"/>
<path d="M193.752 3.14777H189.328V7.53235H193.752V3.14777Z" fill="#264728"/>
<path d="M18.218 15.3698L22.2896 20.0864H35.7693V14.7124H24.7613L32.5456 6.99704L28.7133 3.19526L20.929 10.9106V0H15.5071V10.9106L7.72282 3.19526L3.88711 6.99704L11.6714 14.7124H0.66333V20.0864H14.1464L18.218 15.3698Z" fill="#264728"/>
<path d="M27.4828 28.3947H8.95032V32H27.4828V28.3947Z" fill="#264728"/>
<path d="M31.12 21.889H5.31268V26.5921H31.12V21.889Z" fill="#264728"/>
</svg>
